# xmcd
#
# Track frame offsets: 
#        150
#        11357
#        23510
#        31427
#        40047
#        49877
#        59277
#        69390
#        79700
#        89097
#        98717
#        107120
#        116095
#        126050
#        135275
#        144450
#        154135
#        164985
#        173377
#        182010
#        191420
#        200390
#        211267
#        220367
#        230325
#        239770
#        251320
#        263187
#        274132
#
# Disc length: 3766 seconds
#
# Revision: 2
# Processed by: cddbd v1.5.1PL2 Copyright (c) Steve Scherf et al.
# Submitted via: ExactAudioCopy v0.95b4
#
DISCID=950eb41d
DTITLE=Bonnie Guitar - Dark Moon
DYEAR=1991
DGENRE=Country
TTITLE0=Mister Fire Eyes
TTITLE1=Dark Moon
TTITLE2=Open The Door
TTITLE3=Half Your Heart
TTITLE4=If You See My Love Dancing
TTITLE5=Johnny Vagabond
TTITLE6=Making Believe
TTITLE7=Down Where The Tradewinds Blow
TTITLE8=Letter From Jenny
TTITLE9=There's A New Moon Over My Shoulder
TTITLE10=Moonlight And Shadows
TTITLE11=Carolina Moon
TTITLE12=By The Light Of The Silvery Moon
TTITLE13=Shine On Harvest Moon
TTITLE14=The Moon Is Low
TTITLE15=Get Out And Under The Moon
TTITLE16=Moonlight On The Colorado
TTITLE17=Moonlight And Roses
TTITLE18=It's Only A Paper Moon
TTITLE19=Prairie Moon
TTITLE20=Roll Along Kentucky Moon
TTITLE21=Mister Fire Eyes
TTITLE22=Love Is Over, Love Is Done
TTITLE23=Stand There Mountain
TTITLE24=I Found You Out
TTITLE25=Love By The Jukebox Light
TTITLE26=Big Mike
TTITLE27=A Very Precious Love
TTITLE28=If You'll Be The Teacher
EXTD=
EXTT0=
EXTT1=
EXTT2=
EXTT3=
EXTT4=
EXTT5=
EXTT6=
EXTT7=
EXTT8=
EXTT9=
EXTT10=
EXTT11=
EXTT12=
EXTT13=
EXTT14=
EXTT15=
EXTT16=
EXTT17=
EXTT18=
EXTT19=
EXTT20=
EXTT21=
EXTT22=
EXTT23=
EXTT24=
EXTT25=
EXTT26=
EXTT27=
EXTT28=
PLAYORDER=
